<?xml version="1.0" encoding="utf-8" standalone="no"?>
<!DOCTYPE svg PUBLIC "-//W3C//DTD SVG 1.1//EN"
  "http://www.w3.org/Graphics/SVG/1.1/DTD/svg11.dtd">
<svg height="181.636364pt" version="1.1" viewBox="0 0 239.76 181.636364" width="239.76pt" xmlns="http://www.w3.org/2000/svg" xmlns:xlink="http://www.w3.org/1999/xlink">
 <metadata>
  <rdf:RDF xmlns:cc="http://creativecommons.org/ns#" xmlns:dc="http://purl.org/dc/elements/1.1/" xmlns:rdf="http://www.w3.org/1999/02/22-rdf-syntax-ns#">
   <cc:Work>
    <dc:type rdf:resource="http://purl.org/dc/dcmitype/StillImage"/>
    <dc:date>2022-09-21T23:40:09.884416</dc:date>
    <dc:format>image/svg+xml</dc:format>
    <dc:creator>
     <cc:Agent>
      <dc:title>Matplotlib v3.4.2, https://matplotlib.org/</dc:title>
     </cc:Agent>
    </dc:creator>
   </cc:Work>
  </rdf:RDF>
 </metadata>
 <defs>
  <style type="text/css">*{stroke-linecap:butt;stroke-linejoin:round;}</style>
 </defs>
 <g id="figure_1">
  <g id="patch_1">
   <path d="M 0 181.636364 
L 239.76 181.636364 
L 239.76 0 
L 0 0 
z
" style="fill:#ffffff;"/>
  </g>
  <g id="axes_1">
   <g id="patch_2">
    <path d="M 38.3616 147.125455 
L 237.3624 147.125455 
L 237.3624 5.449091 
L 38.3616 5.449091 
z
" style="fill:#ffffff;"/>
   </g>
   <g id="matplotlib.axis_1">
    <g id="xtick_1">
     <g id="line2d_1">
      <defs>
       <path d="M 0 0 
L 0 4.8 
" id="mabf252009c" style="stroke:#262626;"/>
      </defs>
      <g>
       <use style="fill:#262626;stroke:#262626;" x="38.3616" xlink:href="#mabf252009c" y="147.125455"/>
      </g>
     </g>
     <g id="text_1">
      <!-- −3 -->
      <g style="fill:#262626;" transform="translate(31.520663 164.01483)scale(0.12 -0.12)">
       <defs>
        <path d="M 3381 1997 
L 356 1997 
L 356 2522 
L 3381 2522 
L 3381 1997 
z
" id="ArialMT-2212" transform="scale(0.015625)"/>
        <path d="M 269 1209 
L 831 1284 
Q 928 806 1161 595 
Q 1394 384 1728 384 
Q 2125 384 2398 659 
Q 2672 934 2672 1341 
Q 2672 1728 2419 1979 
Q 2166 2231 1775 2231 
Q 1616 2231 1378 2169 
L 1441 2663 
Q 1497 2656 1531 2656 
Q 1891 2656 2178 2843 
Q 2466 3031 2466 3422 
Q 2466 3731 2256 3934 
Q 2047 4138 1716 4138 
Q 1388 4138 1169 3931 
Q 950 3725 888 3313 
L 325 3413 
Q 428 3978 793 4289 
Q 1159 4600 1703 4600 
Q 2078 4600 2393 4439 
Q 2709 4278 2876 4000 
Q 3044 3722 3044 3409 
Q 3044 3113 2884 2869 
Q 2725 2625 2413 2481 
Q 2819 2388 3044 2092 
Q 3269 1797 3269 1353 
Q 3269 753 2831 336 
Q 2394 -81 1725 -81 
Q 1122 -81 723 278 
Q 325 638 269 1209 
z
" id="ArialMT-33" transform="scale(0.015625)"/>
       </defs>
       <use xlink:href="#ArialMT-2212"/>
       <use x="58.398438" xlink:href="#ArialMT-33"/>
      </g>
     </g>
    </g>
    <g id="xtick_2">
     <g id="line2d_2">
      <g>
       <use style="fill:#262626;stroke:#262626;" x="71.5284" xlink:href="#mabf252009c" y="147.125455"/>
      </g>
     </g>
     <g id="text_2">
      <!-- −2 -->
      <g style="fill:#262626;" transform="translate(64.687463 164.01483)scale(0.12 -0.12)">
       <defs>
        <path d="M 3222 541 
L 3222 0 
L 194 0 
Q 188 203 259 391 
Q 375 700 629 1000 
Q 884 1300 1366 1694 
Q 2113 2306 2375 2664 
Q 2638 3022 2638 3341 
Q 2638 3675 2398 3904 
Q 2159 4134 1775 4134 
Q 1369 4134 1125 3890 
Q 881 3647 878 3216 
L 300 3275 
Q 359 3922 746 4261 
Q 1134 4600 1788 4600 
Q 2447 4600 2831 4234 
Q 3216 3869 3216 3328 
Q 3216 3053 3103 2787 
Q 2991 2522 2730 2228 
Q 2469 1934 1863 1422 
Q 1356 997 1212 845 
Q 1069 694 975 541 
L 3222 541 
z
" id="ArialMT-32" transform="scale(0.015625)"/>
       </defs>
       <use xlink:href="#ArialMT-2212"/>
       <use x="58.398438" xlink:href="#ArialMT-32"/>
      </g>
     </g>
    </g>
    <g id="xtick_3">
     <g id="line2d_3">
      <g>
       <use style="fill:#262626;stroke:#262626;" x="104.6952" xlink:href="#mabf252009c" y="147.125455"/>
      </g>
     </g>
     <g id="text_3">
      <!-- −1 -->
      <g style="fill:#262626;" transform="translate(97.854263 164.01483)scale(0.12 -0.12)">
       <defs>
        <path d="M 2384 0 
L 1822 0 
L 1822 3584 
Q 1619 3391 1289 3197 
Q 959 3003 697 2906 
L 697 3450 
Q 1169 3672 1522 3987 
Q 1875 4303 2022 4600 
L 2384 4600 
L 2384 0 
z
" id="ArialMT-31" transform="scale(0.015625)"/>
       </defs>
       <use xlink:href="#ArialMT-2212"/>
       <use x="58.398438" xlink:href="#ArialMT-31"/>
      </g>
     </g>
    </g>
    <g id="xtick_4">
     <g id="line2d_4">
      <g>
       <use style="fill:#262626;stroke:#262626;" x="137.862" xlink:href="#mabf252009c" y="147.125455"/>
      </g>
     </g>
     <g id="text_4">
      <!-- 0 -->
      <g style="fill:#262626;" transform="translate(134.525437 164.01483)scale(0.12 -0.12)">
       <defs>
        <path d="M 266 2259 
Q 266 3072 433 3567 
Q 600 4063 929 4331 
Q 1259 4600 1759 4600 
Q 2128 4600 2406 4451 
Q 2684 4303 2865 4023 
Q 3047 3744 3150 3342 
Q 3253 2941 3253 2259 
Q 3253 1453 3087 958 
Q 2922 463 2592 192 
Q 2263 -78 1759 -78 
Q 1097 -78 719 397 
Q 266 969 266 2259 
z
M 844 2259 
Q 844 1131 1108 757 
Q 1372 384 1759 384 
Q 2147 384 2411 759 
Q 2675 1134 2675 2259 
Q 2675 3391 2411 3762 
Q 2147 4134 1753 4134 
Q 1366 4134 1134 3806 
Q 844 3388 844 2259 
z
" id="ArialMT-30" transform="scale(0.015625)"/>
       </defs>
       <use xlink:href="#ArialMT-30"/>
      </g>
     </g>
    </g>
    <g id="xtick_5">
     <g id="line2d_5">
      <g>
       <use style="fill:#262626;stroke:#262626;" x="171.0288" xlink:href="#mabf252009c" y="147.125455"/>
      </g>
     </g>
     <g id="text_5">
      <!-- 1 -->
      <g style="fill:#262626;" transform="translate(167.692237 164.01483)scale(0.12 -0.12)">
       <use xlink:href="#ArialMT-31"/>
      </g>
     </g>
    </g>
    <g id="xtick_6">
     <g id="line2d_6">
      <g>
       <use style="fill:#262626;stroke:#262626;" x="204.1956" xlink:href="#mabf252009c" y="147.125455"/>
      </g>
     </g>
     <g id="text_6">
      <!-- 2 -->
      <g style="fill:#262626;" transform="translate(200.859037 164.01483)scale(0.12 -0.12)">
       <use xlink:href="#ArialMT-32"/>
      </g>
     </g>
    </g>
    <g id="xtick_7">
     <g id="line2d_7">
      <g>
       <use style="fill:#262626;stroke:#262626;" x="237.3624" xlink:href="#mabf252009c" y="147.125455"/>
      </g>
     </g>
     <g id="text_7">
      <!-- 3 -->
      <g style="fill:#262626;" transform="translate(234.025837 164.01483)scale(0.12 -0.12)">
       <use xlink:href="#ArialMT-33"/>
      </g>
     </g>
    </g>
    <g id="text_8">
     <!-- $\mathrm{Order parameter} (\mathrm{d}_{\mathrm{NC}} - \mathrm{d}_{\mathrm{OC}})$ -->
     <g style="fill:#262626;" transform="translate(56.562 179.51983)scale(0.12 -0.12)">
      <defs>
       <path d="M 2522 4238 
Q 1834 4238 1429 3725 
Q 1025 3213 1025 2328 
Q 1025 1447 1429 934 
Q 1834 422 2522 422 
Q 3209 422 3611 934 
Q 4013 1447 4013 2328 
Q 4013 3213 3611 3725 
Q 3209 4238 2522 4238 
z
M 2522 4750 
Q 3503 4750 4090 4092 
Q 4678 3434 4678 2328 
Q 4678 1225 4090 567 
Q 3503 -91 2522 -91 
Q 1538 -91 948 565 
Q 359 1222 359 2328 
Q 359 3434 948 4092 
Q 1538 4750 2522 4750 
z
" id="DejaVuSans-4f" transform="scale(0.015625)"/>
       <path d="M 2631 2963 
Q 2534 3019 2420 3045 
Q 2306 3072 2169 3072 
Q 1681 3072 1420 2755 
Q 1159 2438 1159 1844 
L 1159 0 
L 581 0 
L 581 3500 
L 1159 3500 
L 1159 2956 
Q 1341 3275 1631 3429 
Q 1922 3584 2338 3584 
Q 2397 3584 2469 3576 
Q 2541 3569 2628 3553 
L 2631 2963 
z
" id="DejaVuSans-72" transform="scale(0.015625)"/>
       <path d="M 2906 2969 
L 2906 4863 
L 3481 4863 
L 3481 0 
L 2906 0 
L 2906 525 
Q 2725 213 2448 61 
Q 2172 -91 1784 -91 
Q 1150 -91 751 415 
Q 353 922 353 1747 
Q 353 2572 751 3078 
Q 1150 3584 1784 3584 
Q 2172 3584 2448 3432 
Q 2725 3281 2906 2969 
z
M 947 1747 
Q 947 1113 1208 752 
Q 1469 391 1925 391 
Q 2381 391 2643 752 
Q 2906 1113 2906 1747 
Q 2906 2381 2643 2742 
Q 2381 3103 1925 3103 
Q 1469 3103 1208 2742 
Q 947 2381 947 1747 
z
" id="DejaVuSans-64" transform="scale(0.015625)"/>
       <path d="M 3597 1894 
L 3597 1613 
L 953 1613 
Q 991 1019 1311 708 
Q 1631 397 2203 397 
Q 2534 397 2845 478 
Q 3156 559 3463 722 
L 3463 178 
Q 3153 47 2828 -22 
Q 2503 -91 2169 -91 
Q 1331 -91 842 396 
Q 353 884 353 1716 
Q 353 2575 817 3079 
Q 1281 3584 2069 3584 
Q 2775 3584 3186 3129 
Q 3597 2675 3597 1894 
z
M 3022 2063 
Q 3016 2534 2758 2815 
Q 2500 3097 2075 3097 
Q 1594 3097 1305 2825 
Q 1016 2553 972 2059 
L 3022 2063 
z
" id="DejaVuSans-65" transform="scale(0.015625)"/>
       <path d="M 1159 525 
L 1159 -1331 
L 581 -1331 
L 581 3500 
L 1159 3500 
L 1159 2969 
Q 1341 3281 1617 3432 
Q 1894 3584 2278 3584 
Q 2916 3584 3314 3078 
Q 3713 2572 3713 1747 
Q 3713 922 3314 415 
Q 2916 -91 2278 -91 
Q 1894 -91 1617 61 
Q 1341 213 1159 525 
z
M 3116 1747 
Q 3116 2381 2855 2742 
Q 2594 3103 2138 3103 
Q 1681 3103 1420 2742 
Q 1159 2381 1159 1747 
Q 1159 1113 1420 752 
Q 1681 391 2138 391 
Q 2594 391 2855 752 
Q 3116 1113 3116 1747 
z
" id="DejaVuSans-70" transform="scale(0.015625)"/>
       <path d="M 2194 1759 
Q 1497 1759 1228 1600 
Q 959 1441 959 1056 
Q 959 750 1161 570 
Q 1363 391 1709 391 
Q 2188 391 2477 730 
Q 2766 1069 2766 1631 
L 2766 1759 
L 2194 1759 
z
M 3341 1997 
L 3341 0 
L 2766 0 
L 2766 531 
Q 2569 213 2275 61 
Q 1981 -91 1556 -91 
Q 1019 -91 701 211 
Q 384 513 384 1019 
Q 384 1609 779 1909 
Q 1175 2209 1959 2209 
L 2766 2209 
L 2766 2266 
Q 2766 2663 2505 2880 
Q 2244 3097 1772 3097 
Q 1472 3097 1187 3025 
Q 903 2953 641 2809 
L 641 3341 
Q 956 3463 1253 3523 
Q 1550 3584 1831 3584 
Q 2591 3584 2966 3190 
Q 3341 2797 3341 1997 
z
" id="DejaVuSans-61" transform="scale(0.015625)"/>
       <path d="M 3328 2828 
Q 3544 3216 3844 3400 
Q 4144 3584 4550 3584 
Q 5097 3584 5394 3201 
Q 5691 2819 5691 2113 
L 5691 0 
L 5113 0 
L 5113 2094 
Q 5113 2597 4934 2840 
Q 4756 3084 4391 3084 
Q 3944 3084 3684 2787 
Q 3425 2491 3425 1978 
L 3425 0 
L 2847 0 
L 2847 2094 
Q 2847 2600 2669 2842 
Q 2491 3084 2119 3084 
Q 1678 3084 1418 2786 
Q 1159 2488 1159 1978 
L 1159 0 
L 581 0 
L 581 3500 
L 1159 3500 
L 1159 2956 
Q 1356 3278 1631 3431 
Q 1906 3584 2284 3584 
Q 2666 3584 2933 3390 
Q 3200 3197 3328 2828 
z
" id="DejaVuSans-6d" transform="scale(0.015625)"/>
       <path d="M 1172 4494 
L 1172 3500 
L 2356 3500 
L 2356 3053 
L 1172 3053 
L 1172 1153 
Q 1172 725 1289 603 
Q 1406 481 1766 481 
L 2356 481 
L 2356 0 
L 1766 0 
Q 1100 0 847 248 
Q 594 497 594 1153 
L 594 3053 
L 172 3053 
L 172 3500 
L 594 3500 
L 594 4494 
L 1172 4494 
z
" id="DejaVuSans-74" transform="scale(0.015625)"/>
       <path d="M 1984 4856 
Q 1566 4138 1362 3434 
Q 1159 2731 1159 2009 
Q 1159 1288 1364 580 
Q 1569 -128 1984 -844 
L 1484 -844 
Q 1016 -109 783 600 
Q 550 1309 550 2009 
Q 550 2706 781 3412 
Q 1013 4119 1484 4856 
L 1984 4856 
z
" id="DejaVuSans-28" transform="scale(0.015625)"/>
       <path d="M 628 4666 
L 1478 4666 
L 3547 763 
L 3547 4666 
L 4159 4666 
L 4159 0 
L 3309 0 
L 1241 3903 
L 1241 0 
L 628 0 
L 628 4666 
z
" id="DejaVuSans-4e" transform="scale(0.015625)"/>
       <path d="M 4122 4306 
L 4122 3641 
Q 3803 3938 3442 4084 
Q 3081 4231 2675 4231 
Q 1875 4231 1450 3742 
Q 1025 3253 1025 2328 
Q 1025 1406 1450 917 
Q 1875 428 2675 428 
Q 3081 428 3442 575 
Q 3803 722 4122 1019 
L 4122 359 
Q 3791 134 3420 21 
Q 3050 -91 2638 -91 
Q 1578 -91 968 557 
Q 359 1206 359 2328 
Q 359 3453 968 4101 
Q 1578 4750 2638 4750 
Q 3056 4750 3426 4639 
Q 3797 4528 4122 4306 
z
" id="DejaVuSans-43" transform="scale(0.015625)"/>
       <path d="M 678 2272 
L 4684 2272 
L 4684 1741 
L 678 1741 
L 678 2272 
z
" id="DejaVuSans-2212" transform="scale(0.015625)"/>
       <path d="M 513 4856 
L 1013 4856 
Q 1481 4119 1714 3412 
Q 1947 2706 1947 2009 
Q 1947 1309 1714 600 
Q 1481 -109 1013 -844 
L 513 -844 
Q 928 -128 1133 580 
Q 1338 1288 1338 2009 
Q 1338 2731 1133 3434 
Q 928 4138 513 4856 
z
" id="DejaVuSans-29" transform="scale(0.015625)"/>
      </defs>
      <use transform="translate(0 0.015625)" xlink:href="#DejaVuSans-4f"/>
      <use transform="translate(78.710938 0.015625)" xlink:href="#DejaVuSans-72"/>
      <use transform="translate(119.824219 0.015625)" xlink:href="#DejaVuSans-64"/>
      <use transform="translate(183.300781 0.015625)" xlink:href="#DejaVuSans-65"/>
      <use transform="translate(244.824219 0.015625)" xlink:href="#DejaVuSans-72"/>
      <use transform="translate(285.9375 0.015625)" xlink:href="#DejaVuSans-70"/>
      <use transform="translate(349.414062 0.015625)" xlink:href="#DejaVuSans-61"/>
      <use transform="translate(410.693359 0.015625)" xlink:href="#DejaVuSans-72"/>
      <use transform="translate(451.806641 0.015625)" xlink:href="#DejaVuSans-61"/>
      <use transform="translate(513.085938 0.015625)" xlink:href="#DejaVuSans-6d"/>
      <use transform="translate(610.498047 0.015625)" xlink:href="#DejaVuSans-65"/>
      <use transform="translate(672.021484 0.015625)" xlink:href="#DejaVuSans-74"/>
      <use transform="translate(711.230469 0.015625)" xlink:href="#DejaVuSans-65"/>
      <use transform="translate(772.753906 0.015625)" xlink:href="#DejaVuSans-72"/>
      <use transform="translate(813.867188 0.015625)" xlink:href="#DejaVuSans-28"/>
      <use transform="translate(852.880859 0.015625)" xlink:href="#DejaVuSans-64"/>
      <use transform="translate(917.314453 -16.390625)scale(0.7)" xlink:href="#DejaVuSans-4e"/>
      <use transform="translate(969.677734 -16.390625)scale(0.7)" xlink:href="#DejaVuSans-43"/>
      <use transform="translate(1040.771484 0.015625)" xlink:href="#DejaVuSans-2212"/>
      <use transform="translate(1144.042969 0.015625)" xlink:href="#DejaVuSans-64"/>
      <use transform="translate(1208.476562 -16.390625)scale(0.7)" xlink:href="#DejaVuSans-4f"/>
      <use transform="translate(1263.574219 -16.390625)scale(0.7)" xlink:href="#DejaVuSans-43"/>
      <use transform="translate(1315.185547 0.015625)" xlink:href="#DejaVuSans-29"/>
     </g>
    </g>
   </g>
   <g id="matplotlib.axis_2">
    <g id="ytick_1">
     <g id="line2d_8">
      <defs>
       <path d="M 0 0 
L -4.8 0 
" id="m1563949d45" style="stroke:#262626;"/>
      </defs>
      <g>
       <use style="fill:#262626;stroke:#262626;" x="38.3616" xlink:href="#m1563949d45" y="144.528023"/>
      </g>
     </g>
     <g id="text_9">
      <!-- 0 -->
      <g style="fill:#262626;" transform="translate(23.388475 148.82271)scale(0.12 -0.12)">
       <use xlink:href="#ArialMT-30"/>
      </g>
     </g>
    </g>
    <g id="ytick_2">
     <g id="line2d_9">
      <g>
       <use style="fill:#262626;stroke:#262626;" x="38.3616" xlink:href="#m1563949d45" y="121.348201"/>
      </g>
     </g>
     <g id="text_10">
      <!-- 5 -->
      <g style="fill:#262626;" transform="translate(23.388475 125.642888)scale(0.12 -0.12)">
       <defs>
        <path d="M 266 1200 
L 856 1250 
Q 922 819 1161 601 
Q 1400 384 1738 384 
Q 2144 384 2425 690 
Q 2706 997 2706 1503 
Q 2706 1984 2436 2262 
Q 2166 2541 1728 2541 
Q 1456 2541 1237 2417 
Q 1019 2294 894 2097 
L 366 2166 
L 809 4519 
L 3088 4519 
L 3088 3981 
L 1259 3981 
L 1013 2750 
Q 1425 3038 1878 3038 
Q 2478 3038 2890 2622 
Q 3303 2206 3303 1553 
Q 3303 931 2941 478 
Q 2500 -78 1738 -78 
Q 1113 -78 717 272 
Q 322 622 266 1200 
z
" id="ArialMT-35" transform="scale(0.015625)"/>
       </defs>
       <use xlink:href="#ArialMT-35"/>
      </g>
     </g>
    </g>
    <g id="ytick_3">
     <g id="line2d_10">
      <g>
       <use style="fill:#262626;stroke:#262626;" x="38.3616" xlink:href="#m1563949d45" y="98.168379"/>
      </g>
     </g>
     <g id="text_11">
      <!-- 10 -->
      <g style="fill:#262626;" transform="translate(16.71535 102.463066)scale(0.12 -0.12)">
       <use xlink:href="#ArialMT-31"/>
       <use x="55.615234" xlink:href="#ArialMT-30"/>
      </g>
     </g>
    </g>
    <g id="ytick_4">
     <g id="line2d_11">
      <g>
       <use style="fill:#262626;stroke:#262626;" x="38.3616" xlink:href="#m1563949d45" y="74.988557"/>
      </g>
     </g>
     <g id="text_12">
      <!-- 15 -->
      <g style="fill:#262626;" transform="translate(16.71535 79.283244)scale(0.12 -0.12)">
       <use xlink:href="#ArialMT-31"/>
       <use x="55.615234" xlink:href="#ArialMT-35"/>
      </g>
     </g>
    </g>
    <g id="ytick_5">
     <g id="line2d_12">
      <g>
       <use style="fill:#262626;stroke:#262626;" x="38.3616" xlink:href="#m1563949d45" y="51.808735"/>
      </g>
     </g>
     <g id="text_13">
      <!-- 20 -->
      <g style="fill:#262626;" transform="translate(16.71535 56.103422)scale(0.12 -0.12)">
       <use xlink:href="#ArialMT-32"/>
       <use x="55.615234" xlink:href="#ArialMT-30"/>
      </g>
     </g>
    </g>
    <g id="ytick_6">
     <g id="line2d_13">
      <g>
       <use style="fill:#262626;stroke:#262626;" x="38.3616" xlink:href="#m1563949d45" y="28.628913"/>
      </g>
     </g>
     <g id="text_14">
      <!-- 25 -->
      <g style="fill:#262626;" transform="translate(16.71535 32.9236)scale(0.12 -0.12)">
       <use xlink:href="#ArialMT-32"/>
       <use x="55.615234" xlink:href="#ArialMT-35"/>
      </g>
     </g>
    </g>
    <g id="ytick_7">
     <g id="line2d_14">
      <g>
       <use style="fill:#262626;stroke:#262626;" x="38.3616" xlink:href="#m1563949d45" y="5.449091"/>
      </g>
     </g>
     <g id="text_15">
      <!-- 30 -->
      <g style="fill:#262626;" transform="translate(16.71535 9.743778)scale(0.12 -0.12)">
       <use xlink:href="#ArialMT-33"/>
       <use x="55.615234" xlink:href="#ArialMT-30"/>
      </g>
     </g>
    </g>
    <g id="text_16">
     <!-- Free energy (Kcal mol$^{-1}$) -->
     <g style="fill:#262626;" transform="translate(10.07535 143.727273)rotate(-90)scale(0.12 -0.12)">
      <defs>
       <path d="M 525 0 
L 525 4581 
L 3616 4581 
L 3616 4041 
L 1131 4041 
L 1131 2622 
L 3281 2622 
L 3281 2081 
L 1131 2081 
L 1131 0 
L 525 0 
z
" id="ArialMT-46" transform="scale(0.015625)"/>
       <path d="M 416 0 
L 416 3319 
L 922 3319 
L 922 2816 
Q 1116 3169 1280 3281 
Q 1444 3394 1641 3394 
Q 1925 3394 2219 3213 
L 2025 2691 
Q 1819 2813 1613 2813 
Q 1428 2813 1281 2702 
Q 1134 2591 1072 2394 
Q 978 2094 978 1738 
L 978 0 
L 416 0 
z
" id="ArialMT-72" transform="scale(0.015625)"/>
       <path d="M 2694 1069 
L 3275 997 
Q 3138 488 2766 206 
Q 2394 -75 1816 -75 
Q 1088 -75 661 373 
Q 234 822 234 1631 
Q 234 2469 665 2931 
Q 1097 3394 1784 3394 
Q 2450 3394 2872 2941 
Q 3294 2488 3294 1666 
Q 3294 1616 3291 1516 
L 816 1516 
Q 847 969 1125 678 
Q 1403 388 1819 388 
Q 2128 388 2347 550 
Q 2566 713 2694 1069 
z
M 847 1978 
L 2700 1978 
Q 2663 2397 2488 2606 
Q 2219 2931 1791 2931 
Q 1403 2931 1139 2672 
Q 875 2413 847 1978 
z
" id="ArialMT-65" transform="scale(0.015625)"/>
       <path id="ArialMT-20" transform="scale(0.015625)"/>
       <path d="M 422 0 
L 422 3319 
L 928 3319 
L 928 2847 
Q 1294 3394 1984 3394 
Q 2284 3394 2536 3286 
Q 2788 3178 2913 3003 
Q 3038 2828 3088 2588 
Q 3119 2431 3119 2041 
L 3119 0 
L 2556 0 
L 2556 2019 
Q 2556 2363 2490 2533 
Q 2425 2703 2258 2804 
Q 2091 2906 1866 2906 
Q 1506 2906 1245 2678 
Q 984 2450 984 1813 
L 984 0 
L 422 0 
z
" id="ArialMT-6e" transform="scale(0.015625)"/>
       <path d="M 319 -275 
L 866 -356 
Q 900 -609 1056 -725 
Q 1266 -881 1628 -881 
Q 2019 -881 2231 -725 
Q 2444 -569 2519 -288 
Q 2563 -116 2559 434 
Q 2191 0 1641 0 
Q 956 0 581 494 
Q 206 988 206 1678 
Q 206 2153 378 2554 
Q 550 2956 876 3175 
Q 1203 3394 1644 3394 
Q 2231 3394 2613 2919 
L 2613 3319 
L 3131 3319 
L 3131 450 
Q 3131 -325 2973 -648 
Q 2816 -972 2473 -1159 
Q 2131 -1347 1631 -1347 
Q 1038 -1347 672 -1080 
Q 306 -813 319 -275 
z
M 784 1719 
Q 784 1066 1043 766 
Q 1303 466 1694 466 
Q 2081 466 2343 764 
Q 2606 1063 2606 1700 
Q 2606 2309 2336 2618 
Q 2066 2928 1684 2928 
Q 1309 2928 1046 2623 
Q 784 2319 784 1719 
z
" id="ArialMT-67" transform="scale(0.015625)"/>
       <path d="M 397 -1278 
L 334 -750 
Q 519 -800 656 -800 
Q 844 -800 956 -737 
Q 1069 -675 1141 -563 
Q 1194 -478 1313 -144 
Q 1328 -97 1363 -6 
L 103 3319 
L 709 3319 
L 1400 1397 
Q 1534 1031 1641 628 
Q 1738 1016 1872 1384 
L 2581 3319 
L 3144 3319 
L 1881 -56 
Q 1678 -603 1566 -809 
Q 1416 -1088 1222 -1217 
Q 1028 -1347 759 -1347 
Q 597 -1347 397 -1278 
z
" id="ArialMT-79" transform="scale(0.015625)"/>
       <path d="M 1497 -1347 
Q 1031 -759 709 28 
Q 388 816 388 1659 
Q 388 2403 628 3084 
Q 909 3875 1497 4659 
L 1900 4659 
Q 1522 4009 1400 3731 
Q 1209 3300 1100 2831 
Q 966 2247 966 1656 
Q 966 153 1900 -1347 
L 1497 -1347 
z
" id="ArialMT-28" transform="scale(0.015625)"/>
       <path d="M 469 0 
L 469 4581 
L 1075 4581 
L 1075 2309 
L 3350 4581 
L 4172 4581 
L 2250 2725 
L 4256 0 
L 3456 0 
L 1825 2319 
L 1075 1588 
L 1075 0 
L 469 0 
z
" id="ArialMT-4b" transform="scale(0.015625)"/>
       <path d="M 2588 1216 
L 3141 1144 
Q 3050 572 2676 248 
Q 2303 -75 1759 -75 
Q 1078 -75 664 370 
Q 250 816 250 1647 
Q 250 2184 428 2587 
Q 606 2991 970 3192 
Q 1334 3394 1763 3394 
Q 2303 3394 2647 3120 
Q 2991 2847 3088 2344 
L 2541 2259 
Q 2463 2594 2264 2762 
Q 2066 2931 1784 2931 
Q 1359 2931 1093 2626 
Q 828 2322 828 1663 
Q 828 994 1084 691 
Q 1341 388 1753 388 
Q 2084 388 2306 591 
Q 2528 794 2588 1216 
z
" id="ArialMT-63" transform="scale(0.015625)"/>
       <path d="M 2588 409 
Q 2275 144 1986 34 
Q 1697 -75 1366 -75 
Q 819 -75 525 192 
Q 231 459 231 875 
Q 231 1119 342 1320 
Q 453 1522 633 1644 
Q 813 1766 1038 1828 
Q 1203 1872 1538 1913 
Q 2219 1994 2541 2106 
Q 2544 2222 2544 2253 
Q 2544 2597 2384 2738 
Q 2169 2928 1744 2928 
Q 1347 2928 1158 2789 
Q 969 2650 878 2297 
L 328 2372 
Q 403 2725 575 2942 
Q 747 3159 1072 3276 
Q 1397 3394 1825 3394 
Q 2250 3394 2515 3294 
Q 2781 3194 2906 3042 
Q 3031 2891 3081 2659 
Q 3109 2516 3109 2141 
L 3109 1391 
Q 3109 606 3145 398 
Q 3181 191 3288 0 
L 2700 0 
Q 2613 175 2588 409 
z
M 2541 1666 
Q 2234 1541 1622 1453 
Q 1275 1403 1131 1340 
Q 988 1278 909 1158 
Q 831 1038 831 891 
Q 831 666 1001 516 
Q 1172 366 1500 366 
Q 1825 366 2078 508 
Q 2331 650 2450 897 
Q 2541 1088 2541 1459 
L 2541 1666 
z
" id="ArialMT-61" transform="scale(0.015625)"/>
       <path d="M 409 0 
L 409 4581 
L 972 4581 
L 972 0 
L 409 0 
z
" id="ArialMT-6c" transform="scale(0.015625)"/>
       <path d="M 422 0 
L 422 3319 
L 925 3319 
L 925 2853 
Q 1081 3097 1340 3245 
Q 1600 3394 1931 3394 
Q 2300 3394 2536 3241 
Q 2772 3088 2869 2813 
Q 3263 3394 3894 3394 
Q 4388 3394 4653 3120 
Q 4919 2847 4919 2278 
L 4919 0 
L 4359 0 
L 4359 2091 
Q 4359 2428 4304 2576 
Q 4250 2725 4106 2815 
Q 3963 2906 3769 2906 
Q 3419 2906 3187 2673 
Q 2956 2441 2956 1928 
L 2956 0 
L 2394 0 
L 2394 2156 
Q 2394 2531 2256 2718 
Q 2119 2906 1806 2906 
Q 1569 2906 1367 2781 
Q 1166 2656 1075 2415 
Q 984 2175 984 1722 
L 984 0 
L 422 0 
z
" id="ArialMT-6d" transform="scale(0.015625)"/>
       <path d="M 213 1659 
Q 213 2581 725 3025 
Q 1153 3394 1769 3394 
Q 2453 3394 2887 2945 
Q 3322 2497 3322 1706 
Q 3322 1066 3130 698 
Q 2938 331 2570 128 
Q 2203 -75 1769 -75 
Q 1072 -75 642 372 
Q 213 819 213 1659 
z
M 791 1659 
Q 791 1022 1069 705 
Q 1347 388 1769 388 
Q 2188 388 2466 706 
Q 2744 1025 2744 1678 
Q 2744 2294 2464 2611 
Q 2184 2928 1769 2928 
Q 1347 2928 1069 2612 
Q 791 2297 791 1659 
z
" id="ArialMT-6f" transform="scale(0.015625)"/>
       <path d="M 794 531 
L 1825 531 
L 1825 4091 
L 703 3866 
L 703 4441 
L 1819 4666 
L 2450 4666 
L 2450 531 
L 3481 531 
L 3481 0 
L 794 0 
L 794 531 
z
" id="DejaVuSans-31" transform="scale(0.015625)"/>
       <path d="M 791 -1347 
L 388 -1347 
Q 1322 153 1322 1656 
Q 1322 2244 1188 2822 
Q 1081 3291 891 3722 
Q 769 4003 388 4659 
L 791 4659 
Q 1378 3875 1659 3084 
Q 1900 2403 1900 1659 
Q 1900 816 1576 28 
Q 1253 -759 791 -1347 
z
" id="ArialMT-29" transform="scale(0.015625)"/>
      </defs>
      <use transform="translate(0 0.684375)" xlink:href="#ArialMT-46"/>
      <use transform="translate(61.083984 0.684375)" xlink:href="#ArialMT-72"/>
      <use transform="translate(94.384766 0.684375)" xlink:href="#ArialMT-65"/>
      <use transform="translate(150 0.684375)" xlink:href="#ArialMT-65"/>
      <use transform="translate(205.615234 0.684375)" xlink:href="#ArialMT-20"/>
      <use transform="translate(233.398438 0.684375)" xlink:href="#ArialMT-65"/>
      <use transform="translate(289.013672 0.684375)" xlink:href="#ArialMT-6e"/>
      <use transform="translate(344.628906 0.684375)" xlink:href="#ArialMT-65"/>
      <use transform="translate(400.244141 0.684375)" xlink:href="#ArialMT-72"/>
      <use transform="translate(433.544922 0.684375)" xlink:href="#ArialMT-67"/>
      <use transform="translate(489.160156 0.684375)" xlink:href="#ArialMT-79"/>
      <use transform="translate(539.160156 0.684375)" xlink:href="#ArialMT-20"/>
      <use transform="translate(566.943359 0.684375)" xlink:href="#ArialMT-28"/>
      <use transform="translate(600.244141 0.684375)" xlink:href="#ArialMT-4b"/>
      <use transform="translate(666.943359 0.684375)" xlink:href="#ArialMT-63"/>
      <use transform="translate(716.943359 0.684375)" xlink:href="#ArialMT-61"/>
      <use transform="translate(772.558594 0.684375)" xlink:href="#ArialMT-6c"/>
      <use transform="translate(794.775391 0.684375)" xlink:href="#ArialMT-20"/>
      <use transform="translate(822.558594 0.684375)" xlink:href="#ArialMT-6d"/>
      <use transform="translate(905.859375 0.684375)" xlink:href="#ArialMT-6f"/>
      <use transform="translate(961.474609 0.684375)" xlink:href="#ArialMT-6c"/>
      <use transform="translate(984.648438 38.965625)scale(0.7)" xlink:href="#DejaVuSans-2212"/>
      <use transform="translate(1043.300781 38.965625)scale(0.7)" xlink:href="#DejaVuSans-31"/>
      <use transform="translate(1090.571289 0.684375)" xlink:href="#ArialMT-29"/>
     </g>
    </g>
   </g>
   <g id="PathCollection_1"/>
   <g id="LineCollection_1">
    <path clip-path="url(#pdf53f387ad)" d="M 41.67828 132.102314 
L 41.67828 131.850263 
" style="fill:none;stroke:#0000ff;stroke-width:2;"/>
   </g>
   <g id="LineCollection_2">
    <path clip-path="url(#pdf53f387ad)" d="M 48.31164 138.853054 
L 48.31164 138.516467 
" style="fill:none;stroke:#0000ff;stroke-width:2;"/>
   </g>
   <g id="LineCollection_3">
    <path clip-path="url(#pdf53f387ad)" d="M 54.945 140.417283 
L 54.945 139.986718 
" style="fill:none;stroke:#0000ff;stroke-width:2;"/>
   </g>
   <g id="LineCollection_4">
    <path clip-path="url(#pdf53f387ad)" d="M 61.57836 137.471704 
L 61.57836 137.0166 
" style="fill:none;stroke:#0000ff;stroke-width:2;"/>
   </g>
   <g id="LineCollection_5">
    <path clip-path="url(#pdf53f387ad)" d="M 68.21172 136.511846 
L 68.21172 135.961459 
" style="fill:none;stroke:#0000ff;stroke-width:2;"/>
   </g>
   <g id="LineCollection_6">
    <path clip-path="url(#pdf53f387ad)" d="M 74.84508 131.104154 
L 74.84508 130.364297 
" style="fill:none;stroke:#0000ff;stroke-width:2;"/>
   </g>
   <g id="LineCollection_7">
    <path clip-path="url(#pdf53f387ad)" d="M 81.47844 123.893483 
L 81.47844 123.145189 
" style="fill:none;stroke:#0000ff;stroke-width:2;"/>
   </g>
   <g id="LineCollection_8">
    <path clip-path="url(#pdf53f387ad)" d="M 88.1118 111.640383 
L 88.1118 110.549258 
" style="fill:none;stroke:#0000ff;stroke-width:2;"/>
   </g>
   <g id="LineCollection_9">
    <path clip-path="url(#pdf53f387ad)" d="M 94.74516 94.012018 
L 94.74516 92.656375 
" style="fill:none;stroke:#0000ff;stroke-width:2;"/>
   </g>
   <g id="LineCollection_10">
    <path clip-path="url(#pdf53f387ad)" d="M 101.37852 75.998349 
L 101.37852 73.097453 
" style="fill:none;stroke:#0000ff;stroke-width:2;"/>
   </g>
   <g id="LineCollection_11">
    <path clip-path="url(#pdf53f387ad)" d="M 108.01188 63.610327 
L 108.01188 60.473512 
" style="fill:none;stroke:#0000ff;stroke-width:2;"/>
   </g>
   <g id="LineCollection_12">
    <path clip-path="url(#pdf53f387ad)" d="M 114.64524 51.284764 
L 114.64524 47.678066 
" style="fill:none;stroke:#0000ff;stroke-width:2;"/>
   </g>
   <g id="LineCollection_13">
    <path clip-path="url(#pdf53f387ad)" d="M 121.2786 40.254048 
L 121.2786 36.733023 
" style="fill:none;stroke:#0000ff;stroke-width:2;"/>
   </g>
   <g id="LineCollection_14">
    <path clip-path="url(#pdf53f387ad)" d="M 127.91196 32.85432 
L 127.91196 28.789287 
" style="fill:none;stroke:#0000ff;stroke-width:2;"/>
   </g>
   <g id="LineCollection_15">
    <path clip-path="url(#pdf53f387ad)" d="M 134.54532 31.649744 
L 134.54532 27.585092 
" style="fill:none;stroke:#0000ff;stroke-width:2;"/>
   </g>
   <g id="LineCollection_16">
    <path clip-path="url(#pdf53f387ad)" d="M 141.17868 28.704352 
L 141.17868 24.694583 
" style="fill:none;stroke:#0000ff;stroke-width:2;"/>
   </g>
   <g id="LineCollection_17">
    <path clip-path="url(#pdf53f387ad)" d="M 147.81204 24.882324 
L 147.81204 20.900677 
" style="fill:none;stroke:#0000ff;stroke-width:2;"/>
   </g>
   <g id="LineCollection_18">
    <path clip-path="url(#pdf53f387ad)" d="M 154.4454 21.702446 
L 154.4454 17.756275 
" style="fill:none;stroke:#0000ff;stroke-width:2;"/>
   </g>
   <g id="LineCollection_19">
    <path clip-path="url(#pdf53f387ad)" d="M 161.07876 30.311477 
L 161.07876 26.572055 
" style="fill:none;stroke:#0000ff;stroke-width:2;"/>
   </g>
   <g id="LineCollection_20">
    <path clip-path="url(#pdf53f387ad)" d="M 167.71212 43.00656 
L 167.71212 39.076069 
" style="fill:none;stroke:#0000ff;stroke-width:2;"/>
   </g>
   <g id="LineCollection_21">
    <path clip-path="url(#pdf53f387ad)" d="M 174.34548 48.181232 
L 174.34548 43.28188 
" style="fill:none;stroke:#0000ff;stroke-width:2;"/>
   </g>
   <g id="LineCollection_22">
    <path clip-path="url(#pdf53f387ad)" d="M 180.97884 66.840211 
L 180.97884 62.899601 
" style="fill:none;stroke:#0000ff;stroke-width:2;"/>
   </g>
   <g id="LineCollection_23">
    <path clip-path="url(#pdf53f387ad)" d="M 187.6122 66.762843 
L 187.6122 63.043489 
" style="fill:none;stroke:#0000ff;stroke-width:2;"/>
   </g>
   <g id="LineCollection_24">
    <path clip-path="url(#pdf53f387ad)" d="M 194.24556 65.248525 
L 194.24556 61.516971 
" style="fill:none;stroke:#0000ff;stroke-width:2;"/>
   </g>
   <g id="LineCollection_25">
    <path clip-path="url(#pdf53f387ad)" d="M 200.87892 73.113062 
L 200.87892 68.67685 
" style="fill:none;stroke:#0000ff;stroke-width:2;"/>
   </g>
   <g id="LineCollection_26">
    <path clip-path="url(#pdf53f387ad)" d="M 207.51228 82.558774 
L 207.51228 78.360102 
" style="fill:none;stroke:#0000ff;stroke-width:2;"/>
   </g>
   <g id="LineCollection_27">
    <path clip-path="url(#pdf53f387ad)" d="M 214.14564 88.658297 
L 214.14564 84.535372 
" style="fill:none;stroke:#0000ff;stroke-width:2;"/>
   </g>
   <g id="LineCollection_28">
    <path clip-path="url(#pdf53f387ad)" d="M 220.779 89.361111 
L 220.779 85.48234 
" style="fill:none;stroke:#0000ff;stroke-width:2;"/>
   </g>
   <g id="LineCollection_29">
    <path clip-path="url(#pdf53f387ad)" d="M 227.41236 87.855702 
L 227.41236 83.830136 
" style="fill:none;stroke:#0000ff;stroke-width:2;"/>
   </g>
   <g id="LineCollection_30">
    <path clip-path="url(#pdf53f387ad)" d="M 234.04572 81.667347 
L 234.04572 77.844105 
" style="fill:none;stroke:#0000ff;stroke-width:2;"/>
   </g>
   <g id="line2d_15">
    <defs>
     <path d="M 2 0 
L -2 -0 
" id="m87b3f7018f" style="stroke:#0000ff;"/>
    </defs>
    <g clip-path="url(#pdf53f387ad)">
     <use style="fill:#0000ff;stroke:#0000ff;" x="41.67828" xlink:href="#m87b3f7018f" y="132.102314"/>
    </g>
   </g>
   <g id="line2d_16">
    <g clip-path="url(#pdf53f387ad)">
     <use style="fill:#0000ff;stroke:#0000ff;" x="41.67828" xlink:href="#m87b3f7018f" y="131.850263"/>
    </g>
   </g>
   <g id="line2d_17">
    <g clip-path="url(#pdf53f387ad)">
     <use style="fill:#0000ff;stroke:#0000ff;" x="48.31164" xlink:href="#m87b3f7018f" y="138.853054"/>
    </g>
   </g>
   <g id="line2d_18">
    <g clip-path="url(#pdf53f387ad)">
     <use style="fill:#0000ff;stroke:#0000ff;" x="48.31164" xlink:href="#m87b3f7018f" y="138.516467"/>
    </g>
   </g>
   <g id="line2d_19">
    <g clip-path="url(#pdf53f387ad)">
     <use style="fill:#0000ff;stroke:#0000ff;" x="54.945" xlink:href="#m87b3f7018f" y="140.417283"/>
    </g>
   </g>
   <g id="line2d_20">
    <g clip-path="url(#pdf53f387ad)">
     <use style="fill:#0000ff;stroke:#0000ff;" x="54.945" xlink:href="#m87b3f7018f" y="139.986718"/>
    </g>
   </g>
   <g id="line2d_21">
    <g clip-path="url(#pdf53f387ad)">
     <use style="fill:#0000ff;stroke:#0000ff;" x="61.57836" xlink:href="#m87b3f7018f" y="137.471704"/>
    </g>
   </g>
   <g id="line2d_22">
    <g clip-path="url(#pdf53f387ad)">
     <use style="fill:#0000ff;stroke:#0000ff;" x="61.57836" xlink:href="#m87b3f7018f" y="137.0166"/>
    </g>
   </g>
   <g id="line2d_23">
    <g clip-path="url(#pdf53f387ad)">
     <use style="fill:#0000ff;stroke:#0000ff;" x="68.21172" xlink:href="#m87b3f7018f" y="136.511846"/>
    </g>
   </g>
   <g id="line2d_24">
    <g clip-path="url(#pdf53f387ad)">
     <use style="fill:#0000ff;stroke:#0000ff;" x="68.21172" xlink:href="#m87b3f7018f" y="135.961459"/>
    </g>
   </g>
   <g id="line2d_25">
    <g clip-path="url(#pdf53f387ad)">
     <use style="fill:#0000ff;stroke:#0000ff;" x="74.84508" xlink:href="#m87b3f7018f" y="131.104154"/>
    </g>
   </g>
   <g id="line2d_26">
    <g clip-path="url(#pdf53f387ad)">
     <use style="fill:#0000ff;stroke:#0000ff;" x="74.84508" xlink:href="#m87b3f7018f" y="130.364297"/>
    </g>
   </g>
   <g id="line2d_27">
    <g clip-path="url(#pdf53f387ad)">
     <use style="fill:#0000ff;stroke:#0000ff;" x="81.47844" xlink:href="#m87b3f7018f" y="123.893483"/>
    </g>
   </g>
   <g id="line2d_28">
    <g clip-path="url(#pdf53f387ad)">
     <use style="fill:#0000ff;stroke:#0000ff;" x="81.47844" xlink:href="#m87b3f7018f" y="123.145189"/>
    </g>
   </g>
   <g id="line2d_29">
    <g clip-path="url(#pdf53f387ad)">
     <use style="fill:#0000ff;stroke:#0000ff;" x="88.1118" xlink:href="#m87b3f7018f" y="111.640383"/>
    </g>
   </g>
   <g id="line2d_30">
    <g clip-path="url(#pdf53f387ad)">
     <use style="fill:#0000ff;stroke:#0000ff;" x="88.1118" xlink:href="#m87b3f7018f" y="110.549258"/>
    </g>
   </g>
   <g id="line2d_31">
    <g clip-path="url(#pdf53f387ad)">
     <use style="fill:#0000ff;stroke:#0000ff;" x="94.74516" xlink:href="#m87b3f7018f" y="94.012018"/>
    </g>
   </g>
   <g id="line2d_32">
    <g clip-path="url(#pdf53f387ad)">
     <use style="fill:#0000ff;stroke:#0000ff;" x="94.74516" xlink:href="#m87b3f7018f" y="92.656375"/>
    </g>
   </g>
   <g id="line2d_33">
    <g clip-path="url(#pdf53f387ad)">
     <use style="fill:#0000ff;stroke:#0000ff;" x="101.37852" xlink:href="#m87b3f7018f" y="75.998349"/>
    </g>
   </g>
   <g id="line2d_34">
    <g clip-path="url(#pdf53f387ad)">
     <use style="fill:#0000ff;stroke:#0000ff;" x="101.37852" xlink:href="#m87b3f7018f" y="73.097453"/>
    </g>
   </g>
   <g id="line2d_35">
    <g clip-path="url(#pdf53f387ad)">
     <use style="fill:#0000ff;stroke:#0000ff;" x="108.01188" xlink:href="#m87b3f7018f" y="63.610327"/>
    </g>
   </g>
   <g id="line2d_36">
    <g clip-path="url(#pdf53f387ad)">
     <use style="fill:#0000ff;stroke:#0000ff;" x="108.01188" xlink:href="#m87b3f7018f" y="60.473512"/>
    </g>
   </g>
   <g id="line2d_37">
    <g clip-path="url(#pdf53f387ad)">
     <use style="fill:#0000ff;stroke:#0000ff;" x="114.64524" xlink:href="#m87b3f7018f" y="51.284764"/>
    </g>
   </g>
   <g id="line2d_38">
    <g clip-path="url(#pdf53f387ad)">
     <use style="fill:#0000ff;stroke:#0000ff;" x="114.64524" xlink:href="#m87b3f7018f" y="47.678066"/>
    </g>
   </g>
   <g id="line2d_39">
    <g clip-path="url(#pdf53f387ad)">
     <use style="fill:#0000ff;stroke:#0000ff;" x="121.2786" xlink:href="#m87b3f7018f" y="40.254048"/>
    </g>
   </g>
   <g id="line2d_40">
    <g clip-path="url(#pdf53f387ad)">
     <use style="fill:#0000ff;stroke:#0000ff;" x="121.2786" xlink:href="#m87b3f7018f" y="36.733023"/>
    </g>
   </g>
   <g id="line2d_41">
    <g clip-path="url(#pdf53f387ad)">
     <use style="fill:#0000ff;stroke:#0000ff;" x="127.91196" xlink:href="#m87b3f7018f" y="32.85432"/>
    </g>
   </g>
   <g id="line2d_42">
    <g clip-path="url(#pdf53f387ad)">
     <use style="fill:#0000ff;stroke:#0000ff;" x="127.91196" xlink:href="#m87b3f7018f" y="28.789287"/>
    </g>
   </g>
   <g id="line2d_43">
    <g clip-path="url(#pdf53f387ad)">
     <use style="fill:#0000ff;stroke:#0000ff;" x="134.54532" xlink:href="#m87b3f7018f" y="31.649744"/>
    </g>
   </g>
   <g id="line2d_44">
    <g clip-path="url(#pdf53f387ad)">
     <use style="fill:#0000ff;stroke:#0000ff;" x="134.54532" xlink:href="#m87b3f7018f" y="27.585092"/>
    </g>
   </g>
   <g id="line2d_45">
    <g clip-path="url(#pdf53f387ad)">
     <use style="fill:#0000ff;stroke:#0000ff;" x="141.17868" xlink:href="#m87b3f7018f" y="28.704352"/>
    </g>
   </g>
   <g id="line2d_46">
    <g clip-path="url(#pdf53f387ad)">
     <use style="fill:#0000ff;stroke:#0000ff;" x="141.17868" xlink:href="#m87b3f7018f" y="24.694583"/>
    </g>
   </g>
   <g id="line2d_47">
    <g clip-path="url(#pdf53f387ad)">
     <use style="fill:#0000ff;stroke:#0000ff;" x="147.81204" xlink:href="#m87b3f7018f" y="24.882324"/>
    </g>
   </g>
   <g id="line2d_48">
    <g clip-path="url(#pdf53f387ad)">
     <use style="fill:#0000ff;stroke:#0000ff;" x="147.81204" xlink:href="#m87b3f7018f" y="20.900677"/>
    </g>
   </g>
   <g id="line2d_49">
    <g clip-path="url(#pdf53f387ad)">
     <use style="fill:#0000ff;stroke:#0000ff;" x="154.4454" xlink:href="#m87b3f7018f" y="21.702446"/>
    </g>
   </g>
   <g id="line2d_50">
    <g clip-path="url(#pdf53f387ad)">
     <use style="fill:#0000ff;stroke:#0000ff;" x="154.4454" xlink:href="#m87b3f7018f" y="17.756275"/>
    </g>
   </g>
   <g id="line2d_51">
    <g clip-path="url(#pdf53f387ad)">
     <use style="fill:#0000ff;stroke:#0000ff;" x="161.07876" xlink:href="#m87b3f7018f" y="30.311477"/>
    </g>
   </g>
   <g id="line2d_52">
    <g clip-path="url(#pdf53f387ad)">
     <use style="fill:#0000ff;stroke:#0000ff;" x="161.07876" xlink:href="#m87b3f7018f" y="26.572055"/>
    </g>
   </g>
   <g id="line2d_53">
    <g clip-path="url(#pdf53f387ad)">
     <use style="fill:#0000ff;stroke:#0000ff;" x="167.71212" xlink:href="#m87b3f7018f" y="43.00656"/>
    </g>
   </g>
   <g id="line2d_54">
    <g clip-path="url(#pdf53f387ad)">
     <use style="fill:#0000ff;stroke:#0000ff;" x="167.71212" xlink:href="#m87b3f7018f" y="39.076069"/>
    </g>
   </g>
   <g id="line2d_55">
    <g clip-path="url(#pdf53f387ad)">
     <use style="fill:#0000ff;stroke:#0000ff;" x="174.34548" xlink:href="#m87b3f7018f" y="48.181232"/>
    </g>
   </g>
   <g id="line2d_56">
    <g clip-path="url(#pdf53f387ad)">
     <use style="fill:#0000ff;stroke:#0000ff;" x="174.34548" xlink:href="#m87b3f7018f" y="43.28188"/>
    </g>
   </g>
   <g id="line2d_57">
    <g clip-path="url(#pdf53f387ad)">
     <use style="fill:#0000ff;stroke:#0000ff;" x="180.97884" xlink:href="#m87b3f7018f" y="66.840211"/>
    </g>
   </g>
   <g id="line2d_58">
    <g clip-path="url(#pdf53f387ad)">
     <use style="fill:#0000ff;stroke:#0000ff;" x="180.97884" xlink:href="#m87b3f7018f" y="62.899601"/>
    </g>
   </g>
   <g id="line2d_59">
    <g clip-path="url(#pdf53f387ad)">
     <use style="fill:#0000ff;stroke:#0000ff;" x="187.6122" xlink:href="#m87b3f7018f" y="66.762843"/>
    </g>
   </g>
   <g id="line2d_60">
    <g clip-path="url(#pdf53f387ad)">
     <use style="fill:#0000ff;stroke:#0000ff;" x="187.6122" xlink:href="#m87b3f7018f" y="63.043489"/>
    </g>
   </g>
   <g id="line2d_61">
    <g clip-path="url(#pdf53f387ad)">
     <use style="fill:#0000ff;stroke:#0000ff;" x="194.24556" xlink:href="#m87b3f7018f" y="65.248525"/>
    </g>
   </g>
   <g id="line2d_62">
    <g clip-path="url(#pdf53f387ad)">
     <use style="fill:#0000ff;stroke:#0000ff;" x="194.24556" xlink:href="#m87b3f7018f" y="61.516971"/>
    </g>
   </g>
   <g id="line2d_63">
    <g clip-path="url(#pdf53f387ad)">
     <use style="fill:#0000ff;stroke:#0000ff;" x="200.87892" xlink:href="#m87b3f7018f" y="73.113062"/>
    </g>
   </g>
   <g id="line2d_64">
    <g clip-path="url(#pdf53f387ad)">
     <use style="fill:#0000ff;stroke:#0000ff;" x="200.87892" xlink:href="#m87b3f7018f" y="68.67685"/>
    </g>
   </g>
   <g id="line2d_65">
    <g clip-path="url(#pdf53f387ad)">
     <use style="fill:#0000ff;stroke:#0000ff;" x="207.51228" xlink:href="#m87b3f7018f" y="82.558774"/>
    </g>
   </g>
   <g id="line2d_66">
    <g clip-path="url(#pdf53f387ad)">
     <use style="fill:#0000ff;stroke:#0000ff;" x="207.51228" xlink:href="#m87b3f7018f" y="78.360102"/>
    </g>
   </g>
   <g id="line2d_67">
    <g clip-path="url(#pdf53f387ad)">
     <use style="fill:#0000ff;stroke:#0000ff;" x="214.14564" xlink:href="#m87b3f7018f" y="88.658297"/>
    </g>
   </g>
   <g id="line2d_68">
    <g clip-path="url(#pdf53f387ad)">
     <use style="fill:#0000ff;stroke:#0000ff;" x="214.14564" xlink:href="#m87b3f7018f" y="84.535372"/>
    </g>
   </g>
   <g id="line2d_69">
    <g clip-path="url(#pdf53f387ad)">
     <use style="fill:#0000ff;stroke:#0000ff;" x="220.779" xlink:href="#m87b3f7018f" y="89.361111"/>
    </g>
   </g>
   <g id="line2d_70">
    <g clip-path="url(#pdf53f387ad)">
     <use style="fill:#0000ff;stroke:#0000ff;" x="220.779" xlink:href="#m87b3f7018f" y="85.48234"/>
    </g>
   </g>
   <g id="line2d_71">
    <g clip-path="url(#pdf53f387ad)">
     <use style="fill:#0000ff;stroke:#0000ff;" x="227.41236" xlink:href="#m87b3f7018f" y="87.855702"/>
    </g>
   </g>
   <g id="line2d_72">
    <g clip-path="url(#pdf53f387ad)">
     <use style="fill:#0000ff;stroke:#0000ff;" x="227.41236" xlink:href="#m87b3f7018f" y="83.830136"/>
    </g>
   </g>
   <g id="line2d_73">
    <g clip-path="url(#pdf53f387ad)">
     <use style="fill:#0000ff;stroke:#0000ff;" x="234.04572" xlink:href="#m87b3f7018f" y="81.667347"/>
    </g>
   </g>
   <g id="line2d_74">
    <g clip-path="url(#pdf53f387ad)">
     <use style="fill:#0000ff;stroke:#0000ff;" x="234.04572" xlink:href="#m87b3f7018f" y="77.844105"/>
    </g>
   </g>
   <g id="line2d_75">
    <path clip-path="url(#pdf53f387ad)" d="M 38.3616 127.660521 
L 39.361604 129.511122 
L 41.361612 132.671134 
L 42.361616 134.004097 
L 43.36162 135.056686 
L 47.361636 138.419801 
L 48.36164 139.166258 
L 49.361644 139.726902 
L 50.361648 140.02245 
L 51.361652 140.019421 
L 52.361656 139.737136 
L 54.361664 138.619764 
L 56.361672 137.401557 
L 57.361676 136.959898 
L 58.36168 136.688314 
L 59.361684 136.591956 
L 60.361688 136.648867 
L 62.361696 137.043292 
L 64.361705 137.44685 
L 65.361709 137.527498 
L 66.361713 137.480467 
L 67.361717 137.285971 
L 68.361721 136.935878 
L 69.361725 136.431729 
L 71.361733 135.000226 
L 73.361741 133.099007 
L 75.361749 130.839288 
L 77.361757 128.300093 
L 80.361769 124.049249 
L 83.361781 119.286529 
L 86.361793 113.966886 
L 89.361805 108.003137 
L 92.361817 101.325153 
L 95.361829 93.995342 
L 102.361857 76.316286 
L 105.361869 69.575473 
L 108.361881 63.582287 
L 117.361918 46.550695 
L 121.361934 38.672891 
L 123.361942 35.193664 
L 125.36195 32.35004 
L 126.361954 31.225374 
L 127.361958 30.315596 
L 128.361962 29.621708 
L 129.361966 29.134593 
L 130.36197 28.835054 
L 131.361974 28.694514 
L 133.361982 28.737961 
L 136.361994 28.935619 
L 137.361998 28.857577 
L 138.362002 28.646808 
L 139.362006 28.28015 
L 140.36201 27.745981 
L 141.362014 27.045276 
L 143.362022 25.212155 
L 148.362042 19.986885 
L 149.362046 19.25312 
L 150.36205 18.742944 
L 151.362054 18.493974 
L 152.362058 18.53235 
L 153.362062 18.871227 
L 154.362066 19.510111 
L 155.36207 20.43508 
L 156.362074 21.619894 
L 158.362082 24.614727 
L 161.362094 29.954224 
L 164.362107 35.23954 
L 166.362115 38.391949 
L 170.362131 44.051355 
L 172.362139 46.992403 
L 174.362147 50.281935 
L 177.362159 55.88421 
L 180.362171 61.517849 
L 181.362175 63.145185 
L 182.362179 64.544885 
L 183.362183 65.664177 
L 184.362187 66.463279 
L 185.362191 66.919841 
L 186.362195 67.032268 
L 187.362199 66.821594 
L 188.362203 66.331608 
L 190.362211 64.79046 
L 192.362219 63.104328 
L 193.362223 62.453691 
L 194.362227 62.053566 
L 195.362231 61.976958 
L 196.362235 62.274475 
L 197.362239 62.970004 
L 198.362243 64.058572 
L 199.362247 65.506703 
L 201.362255 69.225079 
L 205.362271 77.449959 
L 206.362275 79.175376 
L 207.362279 80.661867 
L 208.362283 81.898198 
L 209.362287 82.89722 
L 210.362291 83.691408 
L 212.362299 84.850989 
L 216.362316 86.586818 
L 218.362324 87.3434 
L 220.362332 87.842901 
L 222.36234 87.96777 
L 224.362348 87.718546 
L 225.362352 87.442042 
L 226.362356 87.024099 
L 227.36236 86.41033 
L 228.362364 85.545864 
L 229.362368 84.41074 
L 232.36238 80.546897 
L 233.362384 79.943271 
L 234.362388 79.968766 
L 235.362392 80.276579 
L 236.362396 80.045461 
L 237.3624 78.859194 
L 237.3624 78.859194 
" style="fill:none;stroke:#225555;stroke-linecap:round;stroke-width:1.2;"/>
   </g>
   <g id="line2d_76">
    <path clip-path="url(#pdf53f387ad)" d="M 41.67828 131.976289 
" style="fill:none;stroke:#77aadd;stroke-linecap:round;stroke-width:1.2;"/>
    <defs>
     <path d="M 0 0.5 
C 0.132602 0.5 0.25979 0.447317 0.353553 0.353553 
C 0.447317 0.25979 0.5 0.132602 0.5 0 
C 0.5 -0.132602 0.447317 -0.25979 0.353553 -0.353553 
C 0.25979 -0.447317 0.132602 -0.5 0 -0.5 
C -0.132602 -0.5 -0.25979 -0.447317 -0.353553 -0.353553 
C -0.447317 -0.25979 -0.5 -0.132602 -0.5 0 
C -0.5 0.132602 -0.447317 0.25979 -0.353553 0.353553 
C -0.25979 0.447317 -0.132602 0.5 0 0.5 
z
" id="m380db2bafe" style="stroke:#77aadd;"/>
    </defs>
    <g clip-path="url(#pdf53f387ad)">
     <use style="fill:#77aadd;stroke:#77aadd;" x="41.67828" xlink:href="#m380db2bafe" y="131.976289"/>
    </g>
   </g>
   <g id="line2d_77">
    <path clip-path="url(#pdf53f387ad)" d="M 48.31164 138.68476 
" style="fill:none;stroke:#ee8866;stroke-linecap:round;stroke-width:1.2;"/>
    <defs>
     <path d="M 0 0.5 
C 0.132602 0.5 0.25979 0.447317 0.353553 0.353553 
C 0.447317 0.25979 0.5 0.132602 0.5 0 
C 0.5 -0.132602 0.447317 -0.25979 0.353553 -0.353553 
C 0.25979 -0.447317 0.132602 -0.5 0 -0.5 
C -0.132602 -0.5 -0.25979 -0.447317 -0.353553 -0.353553 
C -0.447317 -0.25979 -0.5 -0.132602 -0.5 0 
C -0.5 0.132602 -0.447317 0.25979 -0.353553 0.353553 
C -0.25979 0.447317 -0.132602 0.5 0 0.5 
z
" id="m32a87e6d5a" style="stroke:#ee8866;"/>
    </defs>
    <g clip-path="url(#pdf53f387ad)">
     <use style="fill:#ee8866;stroke:#ee8866;" x="48.31164" xlink:href="#m32a87e6d5a" y="138.68476"/>
    </g>
   </g>
   <g id="line2d_78">
    <path clip-path="url(#pdf53f387ad)" d="M 54.945 140.202001 
" style="fill:none;stroke:#eedd88;stroke-linecap:round;stroke-width:1.2;"/>
    <defs>
     <path d="M 0 0.5 
C 0.132602 0.5 0.25979 0.447317 0.353553 0.353553 
C 0.447317 0.25979 0.5 0.132602 0.5 0 
C 0.5 -0.132602 0.447317 -0.25979 0.353553 -0.353553 
C 0.25979 -0.447317 0.132602 -0.5 0 -0.5 
C -0.132602 -0.5 -0.25979 -0.447317 -0.353553 -0.353553 
C -0.447317 -0.25979 -0.5 -0.132602 -0.5 0 
C -0.5 0.132602 -0.447317 0.25979 -0.353553 0.353553 
C -0.25979 0.447317 -0.132602 0.5 0 0.5 
z
" id="mafd1ccae0a" style="stroke:#eedd88;"/>
    </defs>
    <g clip-path="url(#pdf53f387ad)">
     <use style="fill:#eedd88;stroke:#eedd88;" x="54.945" xlink:href="#mafd1ccae0a" y="140.202001"/>
    </g>
   </g>
   <g id="line2d_79">
    <path clip-path="url(#pdf53f387ad)" d="M 61.57836 137.244152 
" style="fill:none;stroke:#ffaabb;stroke-linecap:round;stroke-width:1.2;"/>
    <defs>
     <path d="M 0 0.5 
C 0.132602 0.5 0.25979 0.447317 0.353553 0.353553 
C 0.447317 0.25979 0.5 0.132602 0.5 0 
C 0.5 -0.132602 0.447317 -0.25979 0.353553 -0.353553 
C 0.25979 -0.447317 0.132602 -0.5 0 -0.5 
C -0.132602 -0.5 -0.25979 -0.447317 -0.353553 -0.353553 
C -0.447317 -0.25979 -0.5 -0.132602 -0.5 0 
C -0.5 0.132602 -0.447317 0.25979 -0.353553 0.353553 
C -0.25979 0.447317 -0.132602 0.5 0 0.5 
z
" id="m32fa25936e" style="stroke:#ffaabb;"/>
    </defs>
    <g clip-path="url(#pdf53f387ad)">
     <use style="fill:#ffaabb;stroke:#ffaabb;" x="61.57836" xlink:href="#m32fa25936e" y="137.244152"/>
    </g>
   </g>
   <g id="line2d_80">
    <path clip-path="url(#pdf53f387ad)" d="M 68.21172 136.236652 
" style="fill:none;stroke:#99ddff;stroke-linecap:round;stroke-width:1.2;"/>
    <defs>
     <path d="M 0 0.5 
C 0.132602 0.5 0.25979 0.447317 0.353553 0.353553 
C 0.447317 0.25979 0.5 0.132602 0.5 0 
C 0.5 -0.132602 0.447317 -0.25979 0.353553 -0.353553 
C 0.25979 -0.447317 0.132602 -0.5 0 -0.5 
C -0.132602 -0.5 -0.25979 -0.447317 -0.353553 -0.353553 
C -0.447317 -0.25979 -0.5 -0.132602 -0.5 0 
C -0.5 0.132602 -0.447317 0.25979 -0.353553 0.353553 
C -0.25979 0.447317 -0.132602 0.5 0 0.5 
z
" id="m001be5daea" style="stroke:#99ddff;"/>
    </defs>
    <g clip-path="url(#pdf53f387ad)">
     <use style="fill:#99ddff;stroke:#99ddff;" x="68.21172" xlink:href="#m001be5daea" y="136.236652"/>
    </g>
   </g>
   <g id="line2d_81">
    <path clip-path="url(#pdf53f387ad)" d="M 74.84508 130.734226 
" style="fill:none;stroke:#44bb99;stroke-linecap:round;stroke-width:1.2;"/>
    <defs>
     <path d="M 0 0.5 
C 0.132602 0.5 0.25979 0.447317 0.353553 0.353553 
C 0.447317 0.25979 0.5 0.132602 0.5 0 
C 0.5 -0.132602 0.447317 -0.25979 0.353553 -0.353553 
C 0.25979 -0.447317 0.132602 -0.5 0 -0.5 
C -0.132602 -0.5 -0.25979 -0.447317 -0.353553 -0.353553 
C -0.447317 -0.25979 -0.5 -0.132602 -0.5 0 
C -0.5 0.132602 -0.447317 0.25979 -0.353553 0.353553 
C -0.25979 0.447317 -0.132602 0.5 0 0.5 
z
" id="m9239fa987f" style="stroke:#44bb99;"/>
    </defs>
    <g clip-path="url(#pdf53f387ad)">
     <use style="fill:#44bb99;stroke:#44bb99;" x="74.84508" xlink:href="#m9239fa987f" y="130.734226"/>
    </g>
   </g>
   <g id="line2d_82">
    <path clip-path="url(#pdf53f387ad)" d="M 81.47844 123.519336 
" style="fill:none;stroke:#bbcc33;stroke-linecap:round;stroke-width:1.2;"/>
    <defs>
     <path d="M 0 0.5 
C 0.132602 0.5 0.25979 0.447317 0.353553 0.353553 
C 0.447317 0.25979 0.5 0.132602 0.5 0 
C 0.5 -0.132602 0.447317 -0.25979 0.353553 -0.353553 
C 0.25979 -0.447317 0.132602 -0.5 0 -0.5 
C -0.132602 -0.5 -0.25979 -0.447317 -0.353553 -0.353553 
C -0.447317 -0.25979 -0.5 -0.132602 -0.5 0 
C -0.5 0.132602 -0.447317 0.25979 -0.353553 0.353553 
C -0.25979 0.447317 -0.132602 0.5 0 0.5 
z
" id="m2ab2518015" style="stroke:#bbcc33;"/>
    </defs>
    <g clip-path="url(#pdf53f387ad)">
     <use style="fill:#bbcc33;stroke:#bbcc33;" x="81.47844" xlink:href="#m2ab2518015" y="123.519336"/>
    </g>
   </g>
   <g id="line2d_83">
    <path clip-path="url(#pdf53f387ad)" d="M 88.1118 111.094821 
" style="fill:none;stroke:#aaaa00;stroke-linecap:round;stroke-width:1.2;"/>
    <defs>
     <path d="M 0 0.5 
C 0.132602 0.5 0.25979 0.447317 0.353553 0.353553 
C 0.447317 0.25979 0.5 0.132602 0.5 0 
C 0.5 -0.132602 0.447317 -0.25979 0.353553 -0.353553 
C 0.25979 -0.447317 0.132602 -0.5 0 -0.5 
C -0.132602 -0.5 -0.25979 -0.447317 -0.353553 -0.353553 
C -0.447317 -0.25979 -0.5 -0.132602 -0.5 0 
C -0.5 0.132602 -0.447317 0.25979 -0.353553 0.353553 
C -0.25979 0.447317 -0.132602 0.5 0 0.5 
z
" id="mf83bd1db71" style="stroke:#aaaa00;"/>
    </defs>
    <g clip-path="url(#pdf53f387ad)">
     <use style="fill:#aaaa00;stroke:#aaaa00;" x="88.1118" xlink:href="#mf83bd1db71" y="111.094821"/>
    </g>
   </g>
   <g id="line2d_84">
    <path clip-path="url(#pdf53f387ad)" d="M 94.74516 93.334196 
" style="fill:none;stroke:#dddddd;stroke-linecap:round;stroke-width:1.2;"/>
    <defs>
     <path d="M 0 0.5 
C 0.132602 0.5 0.25979 0.447317 0.353553 0.353553 
C 0.447317 0.25979 0.5 0.132602 0.5 0 
C 0.5 -0.132602 0.447317 -0.25979 0.353553 -0.353553 
C 0.25979 -0.447317 0.132602 -0.5 0 -0.5 
C -0.132602 -0.5 -0.25979 -0.447317 -0.353553 -0.353553 
C -0.447317 -0.25979 -0.5 -0.132602 -0.5 0 
C -0.5 0.132602 -0.447317 0.25979 -0.353553 0.353553 
C -0.25979 0.447317 -0.132602 0.5 0 0.5 
z
" id="mf71057b7d9" style="stroke:#dddddd;"/>
    </defs>
    <g clip-path="url(#pdf53f387ad)">
     <use style="fill:#dddddd;stroke:#dddddd;" x="94.74516" xlink:href="#mf71057b7d9" y="93.334196"/>
    </g>
   </g>
   <g id="line2d_85">
    <path clip-path="url(#pdf53f387ad)" d="M 101.37852 74.547901 
" style="fill:none;stroke:#222255;stroke-linecap:round;stroke-width:1.2;"/>
    <defs>
     <path d="M 0 0.5 
C 0.132602 0.5 0.25979 0.447317 0.353553 0.353553 
C 0.447317 0.25979 0.5 0.132602 0.5 0 
C 0.5 -0.132602 0.447317 -0.25979 0.353553 -0.353553 
C 0.25979 -0.447317 0.132602 -0.5 0 -0.5 
C -0.132602 -0.5 -0.25979 -0.447317 -0.353553 -0.353553 
C -0.447317 -0.25979 -0.5 -0.132602 -0.5 0 
C -0.5 0.132602 -0.447317 0.25979 -0.353553 0.353553 
C -0.25979 0.447317 -0.132602 0.5 0 0.5 
z
" id="mcd3221b2e0" style="stroke:#222255;"/>
    </defs>
    <g clip-path="url(#pdf53f387ad)">
     <use style="fill:#222255;stroke:#222255;" x="101.37852" xlink:href="#mcd3221b2e0" y="74.547901"/>
    </g>
   </g>
   <g id="line2d_86">
    <path clip-path="url(#pdf53f387ad)" d="M 108.01188 62.041919 
" style="fill:none;stroke:#225555;stroke-linecap:round;stroke-width:1.2;"/>
    <defs>
     <path d="M 0 0.5 
C 0.132602 0.5 0.25979 0.447317 0.353553 0.353553 
C 0.447317 0.25979 0.5 0.132602 0.5 0 
C 0.5 -0.132602 0.447317 -0.25979 0.353553 -0.353553 
C 0.25979 -0.447317 0.132602 -0.5 0 -0.5 
C -0.132602 -0.5 -0.25979 -0.447317 -0.353553 -0.353553 
C -0.447317 -0.25979 -0.5 -0.132602 -0.5 0 
C -0.5 0.132602 -0.447317 0.25979 -0.353553 0.353553 
C -0.25979 0.447317 -0.132602 0.5 0 0.5 
z
" id="me96efd135c" style="stroke:#225555;"/>
    </defs>
    <g clip-path="url(#pdf53f387ad)">
     <use style="fill:#225555;stroke:#225555;" x="108.01188" xlink:href="#me96efd135c" y="62.041919"/>
    </g>
   </g>
   <g id="line2d_87">
    <path clip-path="url(#pdf53f387ad)" d="M 114.64524 49.481415 
" style="fill:none;stroke:#225522;stroke-linecap:round;stroke-width:1.2;"/>
    <defs>
     <path d="M 0 0.5 
C 0.132602 0.5 0.25979 0.447317 0.353553 0.353553 
C 0.447317 0.25979 0.5 0.132602 0.5 0 
C 0.5 -0.132602 0.447317 -0.25979 0.353553 -0.353553 
C 0.25979 -0.447317 0.132602 -0.5 0 -0.5 
C -0.132602 -0.5 -0.25979 -0.447317 -0.353553 -0.353553 
C -0.447317 -0.25979 -0.5 -0.132602 -0.5 0 
C -0.5 0.132602 -0.447317 0.25979 -0.353553 0.353553 
C -0.25979 0.447317 -0.132602 0.5 0 0.5 
z
" id="mada34b7d93" style="stroke:#225522;"/>
    </defs>
    <g clip-path="url(#pdf53f387ad)">
     <use style="fill:#225522;stroke:#225522;" x="114.64524" xlink:href="#mada34b7d93" y="49.481415"/>
    </g>
   </g>
   <g id="line2d_88">
    <path clip-path="url(#pdf53f387ad)" d="M 121.2786 38.493536 
" style="fill:none;stroke:#666633;stroke-linecap:round;stroke-width:1.2;"/>
    <defs>
     <path d="M 0 0.5 
C 0.132602 0.5 0.25979 0.447317 0.353553 0.353553 
C 0.447317 0.25979 0.5 0.132602 0.5 0 
C 0.5 -0.132602 0.447317 -0.25979 0.353553 -0.353553 
C 0.25979 -0.447317 0.132602 -0.5 0 -0.5 
C -0.132602 -0.5 -0.25979 -0.447317 -0.353553 -0.353553 
C -0.447317 -0.25979 -0.5 -0.132602 -0.5 0 
C -0.5 0.132602 -0.447317 0.25979 -0.353553 0.353553 
C -0.25979 0.447317 -0.132602 0.5 0 0.5 
z
" id="m06f2559c46" style="stroke:#666633;"/>
    </defs>
    <g clip-path="url(#pdf53f387ad)">
     <use style="fill:#666633;stroke:#666633;" x="121.2786" xlink:href="#m06f2559c46" y="38.493536"/>
    </g>
   </g>
   <g id="line2d_89">
    <path clip-path="url(#pdf53f387ad)" d="M 127.91196 30.821803 
" style="fill:none;stroke:#663333;stroke-linecap:round;stroke-width:1.2;"/>
    <defs>
     <path d="M 0 0.5 
C 0.132602 0.5 0.25979 0.447317 0.353553 0.353553 
C 0.447317 0.25979 0.5 0.132602 0.5 0 
C 0.5 -0.132602 0.447317 -0.25979 0.353553 -0.353553 
C 0.25979 -0.447317 0.132602 -0.5 0 -0.5 
C -0.132602 -0.5 -0.25979 -0.447317 -0.353553 -0.353553 
C -0.447317 -0.25979 -0.5 -0.132602 -0.5 0 
C -0.5 0.132602 -0.447317 0.25979 -0.353553 0.353553 
C -0.25979 0.447317 -0.132602 0.5 0 0.5 
z
" id="ma00b5ce74c" style="stroke:#663333;"/>
    </defs>
    <g clip-path="url(#pdf53f387ad)">
     <use style="fill:#663333;stroke:#663333;" x="127.91196" xlink:href="#ma00b5ce74c" y="30.821803"/>
    </g>
   </g>
   <g id="line2d_90">
    <path clip-path="url(#pdf53f387ad)" d="M 134.54532 29.617418 
" style="fill:none;stroke:#555555;stroke-linecap:round;stroke-width:1.2;"/>
    <defs>
     <path d="M 0 0.5 
C 0.132602 0.5 0.25979 0.447317 0.353553 0.353553 
C 0.447317 0.25979 0.5 0.132602 0.5 0 
C 0.5 -0.132602 0.447317 -0.25979 0.353553 -0.353553 
C 0.25979 -0.447317 0.132602 -0.5 0 -0.5 
C -0.132602 -0.5 -0.25979 -0.447317 -0.353553 -0.353553 
C -0.447317 -0.25979 -0.5 -0.132602 -0.5 0 
C -0.5 0.132602 -0.447317 0.25979 -0.353553 0.353553 
C -0.25979 0.447317 -0.132602 0.5 0 0.5 
z
" id="m42a786af9f" style="stroke:#555555;"/>
    </defs>
    <g clip-path="url(#pdf53f387ad)">
     <use style="fill:#555555;stroke:#555555;" x="134.54532" xlink:href="#m42a786af9f" y="29.617418"/>
    </g>
   </g>
   <g id="line2d_91">
    <path clip-path="url(#pdf53f387ad)" d="M 141.17868 26.699468 
" style="fill:none;stroke:#b9770e;stroke-linecap:round;stroke-width:1.2;"/>
    <defs>
     <path d="M 0 0.5 
C 0.132602 0.5 0.25979 0.447317 0.353553 0.353553 
C 0.447317 0.25979 0.5 0.132602 0.5 0 
C 0.5 -0.132602 0.447317 -0.25979 0.353553 -0.353553 
C 0.25979 -0.447317 0.132602 -0.5 0 -0.5 
C -0.132602 -0.5 -0.25979 -0.447317 -0.353553 -0.353553 
C -0.447317 -0.25979 -0.5 -0.132602 -0.5 0 
C -0.5 0.132602 -0.447317 0.25979 -0.353553 0.353553 
C -0.25979 0.447317 -0.132602 0.5 0 0.5 
z
" id="me6b69a1888" style="stroke:#b9770e;"/>
    </defs>
    <g clip-path="url(#pdf53f387ad)">
     <use style="fill:#b9770e;stroke:#b9770e;" x="141.17868" xlink:href="#me6b69a1888" y="26.699468"/>
    </g>
   </g>
   <g id="line2d_92">
    <path clip-path="url(#pdf53f387ad)" d="M 147.81204 22.8915 
" style="fill:none;stroke:#212f3c;stroke-linecap:round;stroke-width:1.2;"/>
    <defs>
     <path d="M 0 0.5 
C 0.132602 0.5 0.25979 0.447317 0.353553 0.353553 
C 0.447317 0.25979 0.5 0.132602 0.5 0 
C 0.5 -0.132602 0.447317 -0.25979 0.353553 -0.353553 
C 0.25979 -0.447317 0.132602 -0.5 0 -0.5 
C -0.132602 -0.5 -0.25979 -0.447317 -0.353553 -0.353553 
C -0.447317 -0.25979 -0.5 -0.132602 -0.5 0 
C -0.5 0.132602 -0.447317 0.25979 -0.353553 0.353553 
C -0.25979 0.447317 -0.132602 0.5 0 0.5 
z
" id="m23cda0ee74" style="stroke:#212f3c;"/>
    </defs>
    <g clip-path="url(#pdf53f387ad)">
     <use style="fill:#212f3c;stroke:#212f3c;" x="147.81204" xlink:href="#m23cda0ee74" y="22.8915"/>
    </g>
   </g>
   <g id="line2d_93">
    <path clip-path="url(#pdf53f387ad)" d="M 154.4454 19.72936 
" style="fill:none;stroke:#4a235a;stroke-linecap:round;stroke-width:1.2;"/>
    <defs>
     <path d="M 0 0.5 
C 0.132602 0.5 0.25979 0.447317 0.353553 0.353553 
C 0.447317 0.25979 0.5 0.132602 0.5 0 
C 0.5 -0.132602 0.447317 -0.25979 0.353553 -0.353553 
C 0.25979 -0.447317 0.132602 -0.5 0 -0.5 
C -0.132602 -0.5 -0.25979 -0.447317 -0.353553 -0.353553 
C -0.447317 -0.25979 -0.5 -0.132602 -0.5 0 
C -0.5 0.132602 -0.447317 0.25979 -0.353553 0.353553 
C -0.25979 0.447317 -0.132602 0.5 0 0.5 
z
" id="m006f1a0483" style="stroke:#4a235a;"/>
    </defs>
    <g clip-path="url(#pdf53f387ad)">
     <use style="fill:#4a235a;stroke:#4a235a;" x="154.4454" xlink:href="#m006f1a0483" y="19.72936"/>
    </g>
   </g>
   <g id="line2d_94">
    <path clip-path="url(#pdf53f387ad)" d="M 161.07876 28.441766 
" style="fill:none;stroke:#d2b4de;stroke-linecap:round;stroke-width:1.2;"/>
    <defs>
     <path d="M 0 0.5 
C 0.132602 0.5 0.25979 0.447317 0.353553 0.353553 
C 0.447317 0.25979 0.5 0.132602 0.5 0 
C 0.5 -0.132602 0.447317 -0.25979 0.353553 -0.353553 
C 0.25979 -0.447317 0.132602 -0.5 0 -0.5 
C -0.132602 -0.5 -0.25979 -0.447317 -0.353553 -0.353553 
C -0.447317 -0.25979 -0.5 -0.132602 -0.5 0 
C -0.5 0.132602 -0.447317 0.25979 -0.353553 0.353553 
C -0.25979 0.447317 -0.132602 0.5 0 0.5 
z
" id="m9b223856db" style="stroke:#d2b4de;"/>
    </defs>
    <g clip-path="url(#pdf53f387ad)">
     <use style="fill:#d2b4de;stroke:#d2b4de;" x="161.07876" xlink:href="#m9b223856db" y="28.441766"/>
    </g>
   </g>
   <g id="line2d_95">
    <path clip-path="url(#pdf53f387ad)" d="M 167.71212 41.041314 
" style="fill:none;stroke:#5f6a6a;stroke-linecap:round;stroke-width:1.2;"/>
    <defs>
     <path d="M 0 0.5 
C 0.132602 0.5 0.25979 0.447317 0.353553 0.353553 
C 0.447317 0.25979 0.5 0.132602 0.5 0 
C 0.5 -0.132602 0.447317 -0.25979 0.353553 -0.353553 
C 0.25979 -0.447317 0.132602 -0.5 0 -0.5 
C -0.132602 -0.5 -0.25979 -0.447317 -0.353553 -0.353553 
C -0.447317 -0.25979 -0.5 -0.132602 -0.5 0 
C -0.5 0.132602 -0.447317 0.25979 -0.353553 0.353553 
C -0.25979 0.447317 -0.132602 0.5 0 0.5 
z
" id="m7a5dcea2b0" style="stroke:#5f6a6a;"/>
    </defs>
    <g clip-path="url(#pdf53f387ad)">
     <use style="fill:#5f6a6a;stroke:#5f6a6a;" x="167.71212" xlink:href="#m7a5dcea2b0" y="41.041314"/>
    </g>
   </g>
   <g id="line2d_96">
    <path clip-path="url(#pdf53f387ad)" d="M 174.34548 45.731556 
" style="fill:none;stroke:#77aadd;stroke-linecap:round;stroke-width:1.2;"/>
    <g clip-path="url(#pdf53f387ad)">
     <use style="fill:#77aadd;stroke:#77aadd;" x="174.34548" xlink:href="#m380db2bafe" y="45.731556"/>
    </g>
   </g>
   <g id="line2d_97">
    <path clip-path="url(#pdf53f387ad)" d="M 180.97884 64.869906 
" style="fill:none;stroke:#ee8866;stroke-linecap:round;stroke-width:1.2;"/>
    <g clip-path="url(#pdf53f387ad)">
     <use style="fill:#ee8866;stroke:#ee8866;" x="180.97884" xlink:href="#m32a87e6d5a" y="64.869906"/>
    </g>
   </g>
   <g id="line2d_98">
    <path clip-path="url(#pdf53f387ad)" d="M 187.6122 64.903166 
" style="fill:none;stroke:#eedd88;stroke-linecap:round;stroke-width:1.2;"/>
    <g clip-path="url(#pdf53f387ad)">
     <use style="fill:#eedd88;stroke:#eedd88;" x="187.6122" xlink:href="#mafd1ccae0a" y="64.903166"/>
    </g>
   </g>
   <g id="line2d_99">
    <path clip-path="url(#pdf53f387ad)" d="M 194.24556 63.382748 
" style="fill:none;stroke:#ffaabb;stroke-linecap:round;stroke-width:1.2;"/>
    <g clip-path="url(#pdf53f387ad)">
     <use style="fill:#ffaabb;stroke:#ffaabb;" x="194.24556" xlink:href="#m32fa25936e" y="63.382748"/>
    </g>
   </g>
   <g id="line2d_100">
    <path clip-path="url(#pdf53f387ad)" d="M 200.87892 70.894956 
" style="fill:none;stroke:#99ddff;stroke-linecap:round;stroke-width:1.2;"/>
    <g clip-path="url(#pdf53f387ad)">
     <use style="fill:#99ddff;stroke:#99ddff;" x="200.87892" xlink:href="#m001be5daea" y="70.894956"/>
    </g>
   </g>
   <g id="line2d_101">
    <path clip-path="url(#pdf53f387ad)" d="M 207.51228 80.459438 
" style="fill:none;stroke:#44bb99;stroke-linecap:round;stroke-width:1.2;"/>
    <g clip-path="url(#pdf53f387ad)">
     <use style="fill:#44bb99;stroke:#44bb99;" x="207.51228" xlink:href="#m9239fa987f" y="80.459438"/>
    </g>
   </g>
   <g id="line2d_102">
    <path clip-path="url(#pdf53f387ad)" d="M 214.14564 86.596834 
" style="fill:none;stroke:#bbcc33;stroke-linecap:round;stroke-width:1.2;"/>
    <g clip-path="url(#pdf53f387ad)">
     <use style="fill:#bbcc33;stroke:#bbcc33;" x="214.14564" xlink:href="#m2ab2518015" y="86.596834"/>
    </g>
   </g>
   <g id="line2d_103">
    <path clip-path="url(#pdf53f387ad)" d="M 220.779 87.421726 
" style="fill:none;stroke:#aaaa00;stroke-linecap:round;stroke-width:1.2;"/>
    <g clip-path="url(#pdf53f387ad)">
     <use style="fill:#aaaa00;stroke:#aaaa00;" x="220.779" xlink:href="#mf83bd1db71" y="87.421726"/>
    </g>
   </g>
   <g id="line2d_104">
    <path clip-path="url(#pdf53f387ad)" d="M 227.41236 85.842919 
" style="fill:none;stroke:#dddddd;stroke-linecap:round;stroke-width:1.2;"/>
    <g clip-path="url(#pdf53f387ad)">
     <use style="fill:#dddddd;stroke:#dddddd;" x="227.41236" xlink:href="#mf71057b7d9" y="85.842919"/>
    </g>
   </g>
   <g id="line2d_105">
    <path clip-path="url(#pdf53f387ad)" d="M 234.04572 79.755726 
" style="fill:none;stroke:#222255;stroke-linecap:round;stroke-width:1.2;"/>
    <g clip-path="url(#pdf53f387ad)">
     <use style="fill:#222255;stroke:#222255;" x="234.04572" xlink:href="#mcd3221b2e0" y="79.755726"/>
    </g>
   </g>
   <g id="patch_3">
    <path d="M 38.3616 147.125455 
L 38.3616 5.449091 
" style="fill:none;stroke:#262626;stroke-linecap:square;stroke-linejoin:miter;"/>
   </g>
   <g id="patch_4">
    <path d="M 237.3624 147.125455 
L 237.3624 5.449091 
" style="fill:none;stroke:#262626;stroke-linecap:square;stroke-linejoin:miter;"/>
   </g>
   <g id="patch_5">
    <path d="M 38.3616 147.125455 
L 237.3624 147.125455 
" style="fill:none;stroke:#262626;stroke-linecap:square;stroke-linejoin:miter;"/>
   </g>
   <g id="patch_6">
    <path d="M 38.3616 5.449091 
L 237.3624 5.449091 
" style="fill:none;stroke:#262626;stroke-linecap:square;stroke-linejoin:miter;"/>
   </g>
  </g>
 </g>
 <defs>
  <clipPath id="pdf53f387ad">
   <rect height="141.676364" width="199.0008" x="38.3616" y="5.449091"/>
  </clipPath>
 </defs>
</svg>
